# xmcd CD database file
#
# Track frame offsets:
#	150
#	19667
#	39640
#	51710
#	76867
#	103125
#	124612
#	149620
#	175125
#	191057
#
# Disc length: 2834 seconds
#
# Revision: 3
# Processed by: cddbd v1.5.2PL0 Copyright (c) Steve Scherf et al.
# Submitted via: CDex 1.70beta2
#
DISCID=8d0b100a
DTITLE=Kerem Görsev - For Murat
DYEAR=1997
DGENRE=Jazz
TTITLE0=White Sea
TTITLE1=For Murat
TTITLE2=Baroness
TTITLE3=Dance Of Clouds
TTITLE4=Abacco
TTITLE5=Mistake
TTITLE6=Waltz For Bill (Evans)
TTITLE7=Hands and Lips
TTITLE8=Color Change
TTITLE9=Expectations
EXTD=YEAR: 1997
EXTT0=
EXTT1=
EXTT2=
EXTT3=
EXTT4=
EXTT5=
EXTT6=
EXTT7=
EXTT8=
EXTT9=
PLAYORDER=
